# Blender 4.1.1
# www.blender.org
mtllib apple.mtl
o Cube
v -0.707107 0.500000 -0.000001
v -0.707107 -0.500000 -0.000001
v 0.000001 0.500000 -0.707107
v 0.000001 -0.500000 -0.707107
v -0.000001 0.500000 0.707107
v -0.000001 -0.500000 0.707107
v 0.707107 0.500000 0.000001
v 0.707107 -0.500000 0.000001
v 0.431029 -0.609568 0.431030
v -0.431030 -0.609568 0.431029
v -0.862059 -0.000000 -0.000001
v 0.862059 0.000000 0.000001
v 0.000001 -0.000000 -0.862059
v -0.000001 0.000000 0.862059
v 0.431030 0.609568 -0.431029
v -0.431029 0.609568 -0.431030
v 0.431030 -0.609568 -0.431029
v 0.431029 0.609568 0.431030
v -0.431030 0.609568 0.431029
v -0.431029 -0.609568 -0.431030
v 0.000000 0.442144 -0.000000
v 0.593621 -0.000000 -0.593620
v 0.593620 0.000000 0.593621
v 0.000000 -0.733733 0.000000
v -0.593620 -0.000000 -0.593621
v -0.593621 0.000000 0.593620
vn -0.7051 0.7091 -0.0000
vn -0.0000 1.0000 -0.0000
vn -0.3417 0.8755 -0.3417
vn -0.0000 0.7091 0.7051
vn -0.3417 0.8755 0.3417
vn 0.7051 0.7091 -0.0000
vn 0.3417 0.8755 -0.3417
vn -0.0000 0.7091 -0.7051
vn -0.0000 -0.6113 -0.7914
vn 0.7071 -0.0000 -0.7071
vn 0.4620 -0.7571 -0.4620
vn -0.0000 -0.0000 -1.0000
vn 1.0000 -0.0000 -0.0000
vn 0.7914 -0.6113 -0.0000
vn 0.7071 -0.0000 0.7071
vn 0.4620 -0.7571 0.4620
vn -0.0000 -0.0000 1.0000
vn -0.0000 -0.6113 0.7914
vn -0.0000 -1.0000 -0.0000
vn -0.7914 -0.6113 -0.0000
vn -0.4620 -0.7571 0.4620
vn -0.7071 -0.0000 -0.7071
vn -0.4620 -0.7571 -0.4620
vn -1.0000 -0.0000 -0.0000
vn -0.7071 -0.0000 0.7071
vn 0.3417 0.8755 0.3417
vt 0.818753 0.190039
vt 0.909263 0.184521
vt 0.859620 0.233439
vt 0.907867 0.093854
vt 0.850048 0.129660
vt 0.999900 0.187250
vt 0.963247 0.244536
vt 0.902415 0.274940
vt 0.816670 0.360372
vt 0.907033 0.365320
vt 0.852443 0.416005
vt 0.860395 0.318511
vt 0.997519 0.363890
vt 0.959610 0.418090
vt 0.905273 0.455801
vt 0.547539 0.090805
vt 0.638165 0.090683
vt 0.586350 0.144363
vt 0.641000 0.000100
vt 0.586205 0.037143
vt 0.728607 0.096472
vt 0.684661 0.138591
vt 0.641246 0.181257
vt 0.634965 0.362231
vt 0.725854 0.364877
vt 0.671858 0.417864
vt 0.732073 0.274162
vt 0.675032 0.308839
vt 0.780923 0.416748
vt 0.726784 0.455801
vt 0.817241 0.275200
vt 0.773768 0.317859
vt 0.774818 0.231488
vt 0.730015 0.185324
vt 0.677797 0.236374
vt 0.966760 0.127863
vt 0.957917 0.310915
vt 0.693372 0.040497
vt 0.782605 0.134656
s 1
usemtl マテリアル
f 1/1/1 21/2/2 16/3/3
f 5/4/4 21/2/2 19/5/5
f 21/2/2 7/6/6 15/7/7
f 21/2/2 3/8/8 16/3/3
f 4/9/9 22/10/10 17/11/11
f 3/8/8 22/10/10 13/12/12
f 22/10/10 7/13/6 12/14/13
f 22/10/10 8/15/14 17/11/11
f 8/16/14 23/17/15 9/18/16
f 7/19/6 23/17/15 12/20/13
f 23/17/15 5/21/4 14/22/17
f 23/17/15 6/23/18 9/18/16
f 6/24/18 24/25/19 9/26/16
f 2/27/20 24/25/19 10/28/21
f 24/25/19 4/9/9 17/29/11
f 24/25/19 8/30/14 9/26/16
f 2/27/20 25/31/22 20/32/23
f 1/1/1 25/31/22 11/33/24
f 25/31/22 3/8/8 13/12/12
f 25/31/22 4/9/9 20/32/23
f 6/23/18 26/34/25 10/35/21
f 5/21/4 26/34/25 14/22/17
f 26/34/25 1/1/1 11/33/24
f 26/34/25 2/27/20 10/35/21
f 1/1/1 19/5/5 21/2/2
f 5/4/4 18/36/26 21/2/2
f 21/2/2 18/36/26 7/6/6
f 21/2/2 15/7/7 3/8/8
f 4/9/9 13/12/12 22/10/10
f 3/8/8 15/37/7 22/10/10
f 22/10/10 15/37/7 7/13/6
f 22/10/10 12/14/13 8/15/14
f 8/16/14 12/20/13 23/17/15
f 7/19/6 18/38/26 23/17/15
f 23/17/15 18/38/26 5/21/4
f 23/17/15 14/22/17 6/23/18
f 6/24/18 10/28/21 24/25/19
f 2/27/20 20/32/23 24/25/19
f 24/25/19 20/32/23 4/9/9
f 24/25/19 17/29/11 8/30/14
f 2/27/20 11/33/24 25/31/22
f 1/1/1 16/3/3 25/31/22
f 25/31/22 16/3/3 3/8/8
f 25/31/22 13/12/12 4/9/9
f 6/23/18 14/22/17 26/34/25
f 5/21/4 19/39/5 26/34/25
f 26/34/25 19/39/5 1/1/1
f 26/34/25 11/33/24 2/27/20
o 立方体
v -0.070000 0.410336 0.070000
v -0.070000 1.010336 0.094794
v -0.070000 0.410336 -0.070000
v -0.070000 1.010336 -0.101569
v 0.070000 0.410336 0.070000
v 0.070000 1.010336 0.094794
v 0.070000 0.410336 -0.070000
v 0.070000 1.010336 -0.101569
vn -0.6629 0.1438 0.7347
vn -0.7597 -0.0342 -0.6494
vn -0.7482 -0.0274 0.6629
vn -0.6544 0.1387 -0.7433
vn 0.7597 -0.0342 -0.6494
vn 0.6629 0.1437 0.7348
vn 0.7483 -0.0274 0.6628
vn 0.6544 0.1387 -0.7433
vt 0.237424 0.300229
vt 0.530384 0.550625
vt 0.014560 0.550625
vt 0.262183 0.326146
vt 0.547338 0.000100
vt 0.261921 0.267794
vt 0.000100 0.048655
vt 0.299032 0.290842
s 1
usemtl マテリアル
f 28/40/27 29/41/28 27/42/29
f 30/43/30 33/44/31 29/41/28
f 33/44/31 32/45/32 31/46/33
f 32/45/32 27/42/29 31/46/33
f 30/43/30 32/45/32 34/47/34
f 28/40/27 30/43/30 29/41/28
f 30/43/30 34/47/34 33/44/31
f 33/44/31 34/47/34 32/45/32
f 32/45/32 28/40/27 27/42/29
f 30/43/30 28/40/27 32/45/32
