# Blender 4.1.1
# www.blender.org
mtllib titleTuree.mtl
o 枝
v -0.000000 -0.127195 -0.581280
v -0.000000 2.372798 -0.655629
v 0.454463 -0.127195 -0.362422
v 0.246526 2.372798 -0.536908
v 0.566706 -0.127195 0.129347
v 0.307413 2.372798 -0.270145
v 0.252208 -0.127195 0.523715
v 0.136812 2.372798 -0.056218
v -0.252208 -0.127195 0.523715
v -0.136812 2.372798 -0.056218
v -0.566706 -0.127195 0.129347
v -0.307413 2.372798 -0.270145
v -0.454463 -0.127195 -0.362422
v -0.246526 2.372798 -0.536908
v -0.362066 4.756568 -0.670939
v -0.103570 4.756568 -0.546454
v -0.039726 4.756568 -0.266739
v -0.218611 4.756568 -0.042424
v -0.505520 4.756568 -0.042424
v -0.684405 4.756568 -0.266739
v -0.620562 4.756568 -0.546454
v -0.362066 5.088816 -0.670939
v 1.327057 5.551644 -0.546454
v -0.039726 5.088816 -0.266739
v -0.308041 8.381507 0.851343
v -0.505520 5.088816 -0.042424
v -0.684405 5.088816 -0.266739
v -0.531131 8.118497 -2.061496
vn 0.4337 -0.0268 -0.9006
vn 0.9728 0.0654 -0.2220
vn 0.7694 0.1778 0.6136
vn -0.0000 0.2260 0.9741
vn -0.7694 0.1778 0.6136
vn -0.0000 -0.0058 1.0000
vn -0.9728 0.0654 -0.2220
vn -0.4337 -0.0268 -0.9006
vn -0.0000 -0.0000 1.0000
vn -0.4328 -0.0715 -0.8987
vn 0.9652 0.1409 -0.2203
vn -0.7758 -0.1236 0.6187
vn 0.4331 0.0600 -0.8993
vn 0.7769 0.1123 0.6195
vn -0.9636 -0.1521 -0.2199
vn 0.9749 -0.0000 -0.2225
vn -0.4339 -0.0000 -0.9010
vn -0.7818 -0.0000 0.6235
vn 0.8485 -0.1069 0.5183
vn 0.1393 -0.2506 -0.9580
vn -0.9848 -0.0489 -0.1667
vn -0.2740 -0.2366 0.9322
vn 0.3562 -0.6409 0.6800
vn 0.0917 -0.4112 -0.9069
vn 0.7818 -0.0000 0.6235
vn 0.4339 -0.0000 -0.9010
vn -0.9749 -0.0000 -0.2225
vt 0.268356 0.364510
vt 0.268282 0.364701
vt 0.268368 0.364502
vt 0.268210 0.364527
vt 0.268370 0.364496
vt 0.268181 0.364337
vt 0.268366 0.364497
vt 0.268362 0.364497
vt 0.268332 0.364213
vt 0.268364 0.364500
vt 0.238049 0.404366
vt 0.219829 0.366468
vt 0.268635 0.364254
vt 0.268367 0.364497
vt 0.268657 0.364536
vt 0.194665 0.368490
vt 0.309837 0.336250
vt 0.268457 0.364725
vt 0.281669 0.409600
vt 0.234045 0.327673
vt 0.324965 0.384609
vt 0.273525 0.309046
vt 0.286316 0.434067
vt 0.329682 0.320113
vt 0.211318 0.308333
vt 0.000244 0.606391
vt 0.505966 0.607740
vt 0.505966 0.000244
s 0
usemtl マテリアル
f 1/1/1 4/2/1 3/3/1
f 3/3/2 6/4/2 5/5/2
f 5/5/3 8/6/3 7/7/3
f 8/6/4 9/8/4 7/7/4
f 10/9/5 11/10/5 9/8/5
f 10/9/6 18/11/6 19/12/6
f 12/13/7 13/14/7 11/10/7
f 14/15/8 1/1/8 13/14/8
f 18/11/9 26/16/9 19/12/9
f 14/15/10 15/17/10 2/18/10
f 4/2/11 17/19/11 6/4/11
f 12/13/12 19/12/12 20/20/12
f 2/18/13 16/21/13 4/2/13
f 8/6/14 17/19/14 18/11/14
f 12/13/15 21/22/15 14/15/15
f 16/21/16 24/23/16 17/19/16
f 21/22/17 22/24/17 15/17/17
f 19/12/18 27/25/18 20/20/18
f 18/11/19 24/23/19 25/26/19
f 16/21/20 22/24/20 23/27/20
f 21/22/21 27/25/21 28/28/21
f 1/1/1 2/18/1 4/2/1
f 3/3/2 4/2/2 6/4/2
f 5/5/3 6/4/3 8/6/3
f 8/6/4 10/9/4 9/8/4
f 10/9/5 12/13/5 11/10/5
f 10/9/6 8/6/6 18/11/6
f 12/13/7 14/15/7 13/14/7
f 14/15/8 2/18/8 1/1/8
f 18/11/22 25/26/22 26/16/22
f 14/15/10 21/22/10 15/17/10
f 4/2/11 16/21/11 17/19/11
f 12/13/12 10/9/12 19/12/12
f 2/18/13 15/17/13 16/21/13
f 8/6/14 6/4/14 17/19/14
f 12/13/15 20/20/15 21/22/15
f 16/21/23 23/27/23 24/23/23
f 21/22/24 28/28/24 22/24/24
f 19/12/18 26/16/18 27/25/18
f 18/11/25 17/19/25 24/23/25
f 16/21/26 15/17/26 22/24/26
f 21/22/27 20/20/27 27/25/27
o もっこり
v -1.726750 3.962077 -2.126772
v -1.726750 6.797071 -1.640477
v -1.726750 4.374529 -4.531278
v -1.726750 7.209524 -4.044983
v 1.726750 3.962077 -2.126772
v 1.726750 6.797071 -1.640477
v 1.726750 4.374529 -4.531278
v 1.726750 7.209524 -4.044982
v -2.105143 3.857678 -3.382308
v -2.105143 5.334383 -1.620168
v -2.105143 7.313922 -2.789447
v -2.105143 5.837218 -4.551587
v 0.000000 4.109096 -4.848017
v -0.000000 7.565340 -4.255157
v 2.105143 5.837218 -4.551587
v 2.105143 3.857678 -3.382308
v 2.105143 7.313922 -2.789447
v 2.105143 5.334383 -1.620168
v -0.000000 3.606261 -1.916598
v -0.000000 7.062504 -1.323738
v -2.899235 5.585800 -3.085877
v 0.000000 5.932056 -5.104475
v 2.899235 5.585800 -3.085877
v -0.000000 5.239544 -1.067280
v 0.000000 3.205805 -3.494125
v -0.000000 7.965796 -2.677629
v -1.515614 3.760234 2.750106
v -1.655913 5.167157 3.984624
v -1.705977 5.669194 0.552918
v -1.846276 7.076118 1.787436
v 1.846276 4.095483 2.750106
v 1.705977 5.502407 3.984624
v 1.655913 6.004444 0.552918
v 1.515614 7.411367 1.787436
v -1.963778 4.523828 1.516249
v -1.933261 4.217802 3.608106
v -2.134822 6.239058 3.021293
v -2.165339 6.545084 0.929436
v -0.030517 5.891826 0.176913
v -0.201561 7.607056 1.681958
v 1.933261 6.953798 0.929435
v 2.134822 4.932542 1.516249
v 1.963778 6.647773 3.021294
v 2.165339 4.626517 3.608106
v 0.201561 3.564544 2.855584
v 0.030517 5.279775 4.360629
v -2.822327 5.304356 2.268771
v -0.159811 7.188384 0.424218
v 2.822327 5.867244 2.268771
v 0.159811 3.983216 4.113325
v 0.117782 4.404679 1.232385
v -0.117782 6.766921 3.305156
v -4.328796 3.820266 0.656822
v -4.131467 6.386078 1.783882
v -3.997841 5.046628 -2.193004
v -3.800511 7.612440 -1.065945
v -1.901780 3.559160 0.826316
v -1.704451 6.124972 1.953374
v -1.570824 4.785522 -2.023511
v -1.373495 7.351334 -0.896452
v -4.450863 4.180925 -0.910151
v -4.532317 4.997411 1.514031
v -4.210291 7.308999 0.463886
v -4.128838 6.492513 -1.960294
v -2.769691 4.769314 -2.543996
v -2.529120 7.897388 -1.169959
v -1.169974 6.174189 -1.753660
v -1.492000 3.862601 -0.703516
v -1.251429 6.990674 0.670521
v -1.573455 4.679087 1.720665
v -3.173172 3.274212 0.930329
v -2.932600 6.402286 2.304367
v -4.888641 5.805000 -0.262105
v -2.573306 6.615338 -2.512262
v -0.813650 5.366600 0.022475
v -3.128986 4.556261 2.272633
v -3.016805 3.431785 -1.065988
v -2.685487 7.739815 0.826358
v 0.915282 4.186538 1.483140
v 0.524955 6.594735 1.483140
v 0.915282 4.186538 -2.354552
v 0.524955 6.594735 -2.354552
v 3.323479 4.576865 1.483140
v 2.933152 6.985062 1.483140
v 3.323479 4.576865 -2.354552
v 2.933152 6.985062 -2.354552
v 0.694188 3.879910 -0.435707
v 0.456257 5.347869 1.903627
v 0.218327 6.815828 -0.435706
v 0.456257 5.347869 -2.775040
v 2.162148 4.117840 -2.775040
v 1.686286 7.053760 -2.775040
v 3.392176 5.823730 -2.775040
v 3.630107 4.355771 -0.435706
v 3.154246 7.291690 -0.435706
v 3.392176 5.823730 1.903627
v 2.162148 4.117841 1.903627
v 1.686286 7.053760 1.903627
v -0.097479 5.258118 -0.435706
v 1.924217 5.585800 -3.657472
v 3.945914 5.913482 -0.435706
v 1.924217 5.585800 2.786060
v 2.251899 3.564104 -0.435706
v 1.596535 7.607496 -0.435706
v -1.219812 6.930024 0.920213
v -1.219812 9.369648 0.920214
v -1.219812 6.930023 -1.519411
v -1.219812 9.369648 -1.519411
v 1.219812 6.930024 0.920213
v 1.219812 9.369648 0.920214
v 1.219813 6.930023 -1.519411
v 1.219812 9.369648 -1.519410
v -1.487116 6.662719 -0.299598
v -1.487116 8.149836 1.187518
v -1.487116 9.636951 -0.299598
v -1.487117 8.149836 -1.786715
v 0.000000 6.662719 -1.786715
v 0.000000 9.636951 -1.786715
v 1.487117 8.149836 -1.786715
v 1.487117 6.662719 -0.299598
v 1.487117 9.636951 -0.299599
v 1.487117 8.149836 1.187518
v 0.000000 6.662719 1.187518
v 0.000000 9.636952 1.187518
v -2.048080 8.149836 -0.299598
v 0.000000 8.149836 -2.347678
v 2.048080 8.149836 -0.299598
v 0.000000 8.149836 1.748481
v 0.000000 6.101756 -0.299599
v 0.000000 10.197916 -0.299598
vn -0.4743 -0.6748 0.5655
vn -0.4743 0.4477 0.7580
vn -0.4743 -0.4477 -0.7580
vn -0.4743 0.6748 -0.5655
vn 0.4743 -0.6748 0.5655
vn 0.4743 0.4477 0.7580
vn 0.4743 -0.4477 -0.7580
vn 0.4743 0.6748 -0.5655
vn -0.6400 -0.7573 -0.1299
vn -0.5770 -0.1381 0.8050
vn -0.6400 0.7573 0.1299
vn -0.5770 0.1381 -0.8050
vn -0.0000 -0.5086 -0.8610
vn -0.0000 0.7665 -0.6423
vn 0.5770 0.1381 -0.8050
vn 0.6400 -0.7573 -0.1299
vn 0.6400 0.7573 0.1299
vn 0.5770 -0.1381 0.8050
vn -0.0000 -0.7665 0.6423
vn -0.0000 0.5086 0.8610
vn -1.0000 -0.0000 -0.0000
vn -0.0000 0.1691 -0.9856
vn 1.0000 -0.0000 -0.0000
vn -0.0000 -0.1691 0.9856
vn -0.0000 -0.9856 -0.1691
vn -0.0000 0.9856 0.1691
vn -0.3648 -0.9299 -0.0479
vn -0.4666 0.1318 0.8746
vn -0.4298 -0.2338 -0.8722
vn -0.5347 0.8435 0.0504
vn 0.5347 -0.8435 -0.0504
vn 0.4298 0.2338 0.8722
vn 0.4666 -0.1318 -0.8746
vn 0.3648 0.9299 0.0479
vn -0.4874 -0.6626 -0.5687
vn -0.5726 -0.5576 0.6010
vn -0.6075 0.5520 0.5712
vn -0.6716 0.4249 -0.6069
vn 0.0157 -0.1673 -0.9858
vn -0.0956 0.9951 0.0264
vn 0.5726 0.5576 -0.6010
vn 0.6075 -0.5520 -0.5712
vn 0.4874 0.6626 0.5687
vn 0.6716 -0.4249 0.6069
vn 0.0956 -0.9951 -0.0264
vn -0.0157 0.1673 0.9858
vn -0.9940 -0.1098 -0.0013
vn -0.0574 0.6287 -0.7755
vn 0.9940 0.1098 0.0013
vn 0.0574 -0.6287 0.7755
vn 0.0721 -0.7423 -0.6662
vn -0.0721 0.7423 0.6662
vn -0.6909 -0.6794 0.2473
vn -0.5937 0.3663 0.7165
vn -0.5671 -0.2424 -0.7872
vn -0.4948 0.7989 -0.3420
vn 0.4948 -0.7989 0.3420
vn 0.5671 0.2424 0.7872
vn 0.5937 -0.3663 -0.7165
vn 0.6909 0.6794 -0.2473
vn -0.7515 -0.5643 -0.3419
vn -0.7628 -0.2025 0.6140
vn -0.6524 0.7213 0.2328
vn -0.6139 0.3674 -0.6987
vn 0.0313 -0.3486 -0.9368
vn 0.1135 0.9127 -0.3925
vn 0.7628 0.2025 -0.6140
vn 0.6524 -0.7213 -0.2328
vn 0.7515 0.5643 0.3419
vn 0.6139 -0.3674 0.6987
vn -0.1135 -0.9127 0.3925
vn -0.0313 0.3486 0.9368
vn -0.9910 0.1113 -0.0740
vn 0.0929 0.3844 -0.9185
vn 0.9910 -0.1113 0.0740
vn -0.0929 -0.3844 0.9185
vn -0.0645 -0.9091 -0.4116
vn 0.0645 0.9091 0.4116
vn -0.4834 -0.7265 0.4884
vn -0.6954 0.5249 0.4907
vn -0.4947 -0.7262 -0.4773
vn -0.6842 0.5326 -0.4982
vn 0.6842 -0.5326 0.4982
vn 0.4947 0.7262 0.4773
vn 0.6954 -0.5249 -0.4907
vn 0.4834 0.7265 -0.4884
vn -0.5548 -0.8320 0.0032
vn -0.7122 -0.1330 0.6893
vn -0.7906 0.6123 -0.0019
vn -0.7142 -0.1243 -0.6888
vn 0.1077 -0.7342 -0.6703
vn -0.1049 0.7328 -0.6723
vn 0.7122 0.1330 -0.6893
vn 0.7906 -0.6123 0.0019
vn 0.5548 0.8320 -0.0032
vn 0.7142 0.1243 0.6888
vn 0.1049 -0.7328 0.6723
vn -0.1077 0.7342 0.6703
vn -0.9858 -0.1678 0.0004
vn -0.0002 0.0207 -0.9998
vn 0.9858 0.1678 -0.0004
vn 0.0002 -0.0207 0.9998
vn 0.1502 -0.9886 0.0046
vn -0.1502 0.9886 -0.0046
vn -0.5409 -0.5830 0.6062
vn -0.5531 0.5786 0.5994
vn -0.5531 -0.5786 -0.5994
vn -0.5409 0.5830 -0.6062
vn 0.5409 -0.5830 0.6062
vn 0.5531 0.5786 0.5994
vn 0.5531 -0.5786 -0.5994
vn 0.5409 0.5830 -0.6062
vn -0.6781 -0.7350 0.0047
vn -0.6514 -0.0045 0.7587
vn -0.6781 0.7350 -0.0047
vn -0.6514 0.0045 -0.7587
vn -0.0000 -0.6808 -0.7324
vn -0.0000 0.6797 -0.7335
vn 0.6514 0.0045 -0.7587
vn 0.6781 -0.7350 0.0047
vn 0.6781 0.7350 -0.0047
vn 0.6514 -0.0045 0.7587
vn -0.0000 -0.6797 0.7335
vn -0.0000 0.6808 0.7324
vn -0.0000 0.0106 -0.9999
vn -0.0000 -0.0106 0.9999
vn -0.0000 -1.0000 0.0091
vn -0.0000 1.0000 -0.0091
vt 0.631001 0.562057
vt 0.630119 0.509669
vt 0.661614 0.539142
vt 0.577729 0.508842
vt 0.599634 0.540186
vt 0.632655 0.457335
vt 0.657398 0.482361
vt 0.682450 0.507078
vt 0.684014 0.455718
vt 0.713989 0.485462
vt 0.685921 0.404368
vt 0.710334 0.429371
vt 0.735361 0.453757
vt 0.735413 0.404265
vt 0.760585 0.429464
vt 0.735361 0.354773
vt 0.760585 0.379066
vt 0.784905 0.404265
vt 0.787618 0.352006
vt 0.817011 0.383494
vt 0.786677 0.299684
vt 0.818061 0.321531
vt 0.839941 0.352892
vt 0.786677 0.508846
vt 0.787618 0.456525
vt 0.818061 0.487000
vt 0.756099 0.485885
vt 0.817011 0.425036
vt 0.839941 0.455638
vt 0.683099 0.352114
vt 0.710188 0.379119
vt 0.630778 0.353110
vt 0.653772 0.383664
vt 0.683931 0.299791
vt 0.714557 0.322689
vt 0.724817 0.520052
vt 0.735295 0.570675
vt 0.701048 0.562330
vt 0.757662 0.521569
vt 0.767566 0.581819
vt 0.742345 0.620992
vt 0.715299 0.612968
vt 0.692282 0.605566
vt 0.703359 0.647575
vt 0.676722 0.638517
vt 0.734185 0.657433
vt 0.694874 0.681414
vt 0.670915 0.674757
vt 0.663025 0.712031
vt 0.720110 0.690730
vt 0.687220 0.719725
vt 0.711517 0.729298
vt 0.680875 0.758978
vt 0.656088 0.750871
vt 0.643715 0.783175
vt 0.702311 0.764025
vt 0.672938 0.791727
vt 0.686223 0.828509
vt 0.661358 0.827447
vt 0.636819 0.816126
vt 0.599673 0.659601
vt 0.625902 0.704263
vt 0.584134 0.698996
vt 0.637368 0.657833
vt 0.618850 0.754507
vt 0.584134 0.742383
vt 0.746150 0.740001
vt 0.789654 0.707041
vt 0.756406 0.691134
vt 0.769066 0.786795
vt 0.732721 0.784233
vt 0.874734 0.168428
vt 0.897358 0.223823
vt 0.853389 0.213715
vt 0.949512 0.186420
vt 0.915158 0.168390
vt 0.917344 0.278640
vt 0.881498 0.270948
vt 0.847867 0.261120
vt 0.873496 0.296399
vt 0.835087 0.288586
vt 0.914602 0.308381
vt 0.868720 0.324465
vt 0.834672 0.319385
vt 0.861827 0.369605
vt 0.827030 0.361310
vt 0.901095 0.334055
vt 0.889189 0.417659
vt 0.856082 0.413062
vt 0.822741 0.404028
vt 0.812112 0.430000
vt 0.852035 0.439000
vt 0.890308 0.446738
vt 0.843346 0.470037
vt 0.809755 0.457344
vt 0.779586 0.305370
vt 0.799033 0.354754
vt 0.767480 0.349677
vt 0.808856 0.303442
vt 0.794873 0.408305
vt 0.767480 0.396883
vt 0.925350 0.380283
vt 0.896759 0.376768
vt 0.956438 0.335512
vt 0.929698 0.327046
vt 0.944141 0.425453
vt 0.914947 0.430267
vt 0.752337 0.502928
vt 0.709584 0.453796
vt 0.745993 0.446873
vt 0.690010 0.513858
vt 0.724145 0.519672
vt 0.666326 0.403890
vt 0.695002 0.394800
vt 0.725887 0.393126
vt 0.725538 0.362048
vt 0.652072 0.376076
vt 0.688241 0.369173
vt 0.682881 0.343694
vt 0.712345 0.334317
vt 0.675035 0.288030
vt 0.706990 0.281856
vt 0.653157 0.344996
vt 0.638700 0.241574
vt 0.667886 0.231403
vt 0.698004 0.230434
vt 0.702319 0.199569
vt 0.627221 0.212951
vt 0.664888 0.203858
vt 0.659591 0.169747
vt 0.695527 0.168390
vt 0.766640 0.329923
vt 0.736545 0.276855
vt 0.767100 0.273060
vt 0.740653 0.343000
vt 0.722885 0.213202
vt 0.751598 0.219015
vt 0.616102 0.298199
vt 0.644243 0.293884
vt 0.599429 0.355991
vt 0.629159 0.361848
vt 0.584134 0.244588
vt 0.611092 0.232091
vt 0.943596 0.767677
vt 0.903428 0.738851
vt 0.939987 0.730730
vt 0.880761 0.779922
vt 0.913931 0.780781
vt 0.865117 0.708049
vt 0.894064 0.701467
vt 0.923933 0.696357
vt 0.888305 0.675434
vt 0.923396 0.668493
vt 0.854737 0.653672
vt 0.883912 0.649377
vt 0.913292 0.642512
vt 0.878953 0.614220
vt 0.909395 0.608171
vt 0.844531 0.586014
vt 0.873981 0.578852
vt 0.903270 0.574842
vt 0.869479 0.551851
vt 0.904402 0.546632
vt 0.831869 0.532319
vt 0.862990 0.521848
vt 0.895029 0.520052
vt 0.967792 0.637274
vt 0.936992 0.603477
vt 0.967792 0.599644
vt 0.941134 0.646199
vt 0.928897 0.562627
vt 0.957214 0.564199
vt 0.820931 0.625121
vt 0.848521 0.620352
vt 0.800811 0.664462
vt 0.829138 0.665958
vt 0.790034 0.591400
vt 0.816673 0.582402
vt 0.600613 0.478205
vt 0.654239 0.425773
vt 0.756099 0.322645
vt 0.652592 0.321703
vt 0.783076 0.538185
vt 0.698454 0.797290
vt 0.786475 0.749908
vt 0.941308 0.234845
vt 0.879720 0.474994
vt 0.956406 0.381624
vt 0.671892 0.459847
vt 0.624377 0.181485
vt 0.584134 0.301616
vt 0.866692 0.744925
vt 0.854371 0.681917
vt 0.833741 0.560242
vt 0.790136 0.629039
s 1
usemtl マテリアル
f 29/29/28 49/30/48 37/31/36
f 30/32/29 49/30/48 38/33/37
f 49/30/48 32/34/31 40/35/39
f 49/30/48 31/36/30 37/31/36
f 31/36/30 50/37/49 41/38/40
f 32/34/31 50/37/49 40/35/39
f 50/37/49 36/39/35 43/40/42
f 50/37/49 35/41/34 41/38/40
f 35/41/34 51/42/50 44/43/43
f 36/39/35 51/42/50 43/40/42
f 51/42/50 34/44/33 46/45/45
f 51/42/50 33/46/32 44/43/43
f 33/46/32 52/47/51 47/48/46
f 34/44/33 52/47/51 46/45/45
f 52/47/51 30/49/29 38/50/37
f 52/47/51 29/51/28 47/48/46
f 31/52/30 53/53/52 37/54/36
f 35/41/34 53/53/52 41/55/40
f 53/53/52 33/46/32 47/56/46
f 53/53/52 29/57/28 37/54/36
f 36/39/35 54/58/53 45/59/44
f 32/60/31 54/58/53 42/61/41
f 54/58/53 30/62/29 48/63/47
f 54/58/53 34/44/33 45/59/44
f 55/64/54 75/65/74 63/66/62
f 64/67/63 65/68/64 75/65/74
f 75/65/74 58/69/57 66/70/65
f 63/66/62 66/70/65 57/71/56
f 57/71/56 76/72/75 67/73/66
f 66/70/65 68/74/67 76/72/75
f 68/74/67 69/75/68 76/72/75
f 76/72/75 61/76/60 67/73/66
f 69/75/68 70/77/69 61/76/60
f 62/78/61 77/79/76 69/75/68
f 71/80/70 72/81/71 77/79/76
f 77/79/76 59/82/58 70/77/69
f 72/81/71 73/83/72 59/82/58
f 60/84/59 78/85/77 72/81/71
f 78/85/77 56/86/55 64/87/63
f 73/83/72 64/87/63 55/88/54
f 57/89/56 79/90/78 63/91/62
f 61/76/60 79/90/78 67/92/66
f 79/90/78 59/82/58 73/93/72
f 79/90/78 55/94/54 63/91/62
f 62/78/61 80/95/79 71/80/70
f 58/96/57 80/95/79 68/97/67
f 80/95/79 56/98/55 74/99/73
f 80/95/79 60/84/59 71/80/70
f 81/100/80 101/101/100 89/102/88
f 82/103/81 101/101/100 90/104/89
f 101/101/100 84/105/83 92/106/91
f 101/101/100 83/107/82 89/102/88
f 83/107/82 102/108/101 93/109/92
f 92/106/91 94/110/93 102/108/101
f 94/110/93 95/111/94 102/108/101
f 93/109/92 95/111/94 87/112/86
f 87/112/86 103/113/102 96/114/95
f 88/115/87 103/113/102 95/111/94
f 103/113/102 86/116/85 98/117/97
f 103/113/102 85/118/84 96/114/95
f 98/117/97 99/119/98 85/118/84
f 86/116/85 104/120/103 98/117/97
f 100/121/99 90/122/89 104/120/103
f 99/119/98 90/122/89 81/123/80
f 83/124/82 105/125/104 89/126/88
f 87/112/86 105/125/104 93/127/92
f 105/125/104 85/118/84 99/128/98
f 105/125/104 81/129/80 89/126/88
f 88/115/87 106/130/105 97/131/96
f 84/132/83 106/130/105 94/133/93
f 106/130/105 82/134/81 100/135/99
f 106/130/105 86/116/85 97/131/96
f 107/136/106 127/137/126 115/138/114
f 108/139/107 127/137/126 116/140/115
f 127/137/126 110/141/109 118/142/117
f 127/137/126 109/143/108 115/138/114
f 118/142/117 119/144/118 109/143/108
f 118/142/117 120/145/119 128/146/127
f 120/145/119 121/147/120 128/146/127
f 119/144/118 121/147/120 113/148/112
f 113/148/112 129/149/128 122/150/121
f 114/151/113 129/149/128 121/147/120
f 129/149/128 112/152/111 124/153/123
f 129/149/128 111/154/110 122/150/121
f 124/153/123 125/155/124 111/154/110
f 124/153/123 126/156/125 130/157/129
f 126/156/125 116/158/115 130/157/129
f 125/155/124 116/158/115 107/159/106
f 109/160/108 131/161/130 115/162/114
f 113/148/112 131/161/130 119/163/118
f 131/161/130 111/154/110 125/164/124
f 131/161/130 107/165/106 115/162/114
f 114/151/113 132/166/131 123/167/122
f 110/168/109 132/166/131 120/169/119
f 132/166/131 108/170/107 126/171/125
f 132/166/131 112/152/111 123/167/122
f 133/172/132 153/173/48 141/174/140
f 134/175/133 153/173/48 142/176/141
f 153/173/48 136/177/135 144/178/143
f 153/173/48 135/179/134 141/174/140
f 135/179/134 154/180/152 145/181/144
f 136/177/135 154/180/152 144/178/143
f 154/180/152 140/182/139 147/183/146
f 154/180/152 139/184/138 145/181/144
f 139/184/138 155/185/50 148/186/147
f 140/182/139 155/185/50 147/183/146
f 155/185/50 138/187/137 150/188/149
f 155/185/50 137/189/136 148/186/147
f 137/189/136 156/190/153 151/191/150
f 138/187/137 156/190/153 150/188/149
f 156/190/153 134/192/133 142/193/141
f 156/190/153 133/194/132 151/191/150
f 135/195/134 157/196/154 141/197/140
f 139/184/138 157/196/154 145/198/144
f 157/196/154 137/189/136 151/199/150
f 157/196/154 133/200/132 141/197/140
f 140/182/139 158/201/155 149/202/148
f 136/203/135 158/201/155 146/204/145
f 158/201/155 134/205/133 152/206/151
f 158/201/155 138/187/137 149/202/148
f 29/29/28 38/33/37 49/30/48
f 30/32/29 39/207/38 49/30/48
f 49/30/48 39/207/38 32/34/31
f 49/30/48 40/35/39 31/36/30
f 31/36/30 40/35/39 50/37/49
f 32/34/31 42/208/41 50/37/49
f 50/37/49 42/208/41 36/39/35
f 50/37/49 43/40/42 35/41/34
f 35/41/34 43/40/42 51/42/50
f 36/39/35 45/59/44 51/42/50
f 51/42/50 45/59/44 34/44/33
f 51/42/50 46/45/45 33/46/32
f 33/46/32 46/45/45 52/47/51
f 34/44/33 48/209/47 52/47/51
f 52/47/51 48/209/47 30/49/29
f 52/47/51 38/50/37 29/51/28
f 31/52/30 41/55/40 53/53/52
f 35/41/34 44/43/43 53/53/52
f 53/53/52 44/43/43 33/46/32
f 53/53/52 47/56/46 29/57/28
f 36/39/35 42/61/41 54/58/53
f 32/60/31 39/210/38 54/58/53
f 54/58/53 39/210/38 30/62/29
f 54/58/53 48/63/47 34/44/33
f 55/64/54 64/67/63 75/65/74
f 64/67/63 56/211/55 65/68/64
f 75/65/74 65/68/64 58/69/57
f 63/66/62 75/65/74 66/70/65
f 57/71/56 66/70/65 76/72/75
f 66/70/65 58/69/57 68/74/67
f 68/74/67 62/78/61 69/75/68
f 76/72/75 69/75/68 61/76/60
f 69/75/68 77/79/76 70/77/69
f 62/78/61 71/80/70 77/79/76
f 71/80/70 60/84/59 72/81/71
f 77/79/76 72/81/71 59/82/58
f 72/81/71 78/85/77 73/83/72
f 60/84/59 74/212/73 78/85/77
f 78/85/77 74/212/73 56/86/55
f 73/83/72 78/85/77 64/87/63
f 57/89/56 67/92/66 79/90/78
f 61/76/60 70/77/69 79/90/78
f 79/90/78 70/77/69 59/82/58
f 79/90/78 73/93/72 55/94/54
f 62/78/61 68/97/67 80/95/79
f 58/96/57 65/213/64 80/95/79
f 80/95/79 65/213/64 56/98/55
f 80/95/79 74/99/73 60/84/59
f 81/100/80 90/104/89 101/101/100
f 82/103/81 91/214/90 101/101/100
f 101/101/100 91/214/90 84/105/83
f 101/101/100 92/106/91 83/107/82
f 83/107/82 92/106/91 102/108/101
f 92/106/91 84/105/83 94/110/93
f 94/110/93 88/115/87 95/111/94
f 93/109/92 102/108/101 95/111/94
f 87/112/86 95/111/94 103/113/102
f 88/115/87 97/131/96 103/113/102
f 103/113/102 97/131/96 86/116/85
f 103/113/102 98/117/97 85/118/84
f 98/117/97 104/120/103 99/119/98
f 86/116/85 100/121/99 104/120/103
f 100/121/99 82/215/81 90/122/89
f 99/119/98 104/120/103 90/122/89
f 83/124/82 93/127/92 105/125/104
f 87/112/86 96/114/95 105/125/104
f 105/125/104 96/114/95 85/118/84
f 105/125/104 99/128/98 81/129/80
f 88/115/87 94/133/93 106/130/105
f 84/132/83 91/216/90 106/130/105
f 106/130/105 91/216/90 82/134/81
f 106/130/105 100/135/99 86/116/85
f 107/136/106 116/140/115 127/137/126
f 108/139/107 117/217/116 127/137/126
f 127/137/126 117/217/116 110/141/109
f 127/137/126 118/142/117 109/143/108
f 118/142/117 128/146/127 119/144/118
f 118/142/117 110/141/109 120/145/119
f 120/145/119 114/151/113 121/147/120
f 119/144/118 128/146/127 121/147/120
f 113/148/112 121/147/120 129/149/128
f 114/151/113 123/167/122 129/149/128
f 129/149/128 123/167/122 112/152/111
f 129/149/128 124/153/123 111/154/110
f 124/153/123 130/157/129 125/155/124
f 124/153/123 112/152/111 126/156/125
f 126/156/125 108/218/107 116/158/115
f 125/155/124 130/157/129 116/158/115
f 109/160/108 119/163/118 131/161/130
f 113/148/112 122/150/121 131/161/130
f 131/161/130 122/150/121 111/154/110
f 131/161/130 125/164/124 107/165/106
f 114/151/113 120/169/119 132/166/131
f 110/168/109 117/219/116 132/166/131
f 132/166/131 117/219/116 108/170/107
f 132/166/131 126/171/125 112/152/111
f 133/172/132 142/176/141 153/173/48
f 134/175/133 143/220/142 153/173/48
f 153/173/48 143/220/142 136/177/135
f 153/173/48 144/178/143 135/179/134
f 135/179/134 144/178/143 154/180/152
f 136/177/135 146/221/145 154/180/152
f 154/180/152 146/221/145 140/182/139
f 154/180/152 147/183/146 139/184/138
f 139/184/138 147/183/146 155/185/50
f 140/182/139 149/202/148 155/185/50
f 155/185/50 149/202/148 138/187/137
f 155/185/50 150/188/149 137/189/136
f 137/189/136 150/188/149 156/190/153
f 138/187/137 152/222/151 156/190/153
f 156/190/153 152/222/151 134/192/133
f 156/190/153 142/193/141 133/194/132
f 135/195/134 145/198/144 157/196/154
f 139/184/138 148/186/147 157/196/154
f 157/196/154 148/186/147 137/189/136
f 157/196/154 151/199/150 133/200/132
f 140/182/139 146/204/145 158/201/155
f 136/203/135 143/223/142 158/201/155
f 158/201/155 143/223/142 134/205/133
f 158/201/155 152/206/151 138/187/137
o 土
v -3.181150 -2.312933 3.181150
v -3.181150 -2.312934 -3.181150
v 3.181150 -2.312933 3.181150
v 3.181150 -2.312934 -3.181150
v -3.878253 -3.010037 -0.000000
v 0.000000 -3.010037 -3.878253
v 3.878253 -3.010037 0.000000
v -0.000000 -3.010037 3.878253
v 0.000000 -4.472974 0.000000
v -5.043664 0.430041 0.438176
v -3.782233 0.430041 3.782234
v -5.175903 0.430041 0.000000
v -3.878254 0.430041 -3.440078
v -3.782234 0.430041 -3.782233
v -0.438176 0.430041 -5.043664
v 0.000000 0.430041 -5.175903
v 3.440078 0.430041 -3.878254
v 3.782233 0.430041 -3.782234
v 5.043664 0.430041 -0.438176
v 5.175903 0.430041 0.000000
v 3.878254 0.430041 3.440078
v 3.782234 0.430041 3.782234
v 0.438176 0.430041 5.043664
v -0.000000 0.430041 5.175903
v -3.440078 0.430041 3.878254
vn -0.5774 -0.5752 0.5794
vn -0.5794 -0.5752 -0.5774
vn 0.5794 -0.5752 0.5774
vn 0.5774 -0.5752 -0.5794
vn -0.7071 -0.7071 -0.0000
vn -0.0000 -0.7071 -0.7071
vn 0.7071 -0.7071 -0.0000
vn -0.0000 -0.7071 0.7071
vn -0.0000 -1.0000 -0.0000
vn -0.7807 0.5731 0.2493
vn -0.5859 0.5033 0.6351
vn -0.8616 0.5075 -0.0130
vn -0.7467 0.6185 -0.2448
vn -0.6351 0.5033 -0.5859
vn -0.2493 0.5731 -0.7807
vn 0.0130 0.5075 -0.8616
vn 0.2448 0.6185 -0.7467
vn 0.5859 0.5033 -0.6351
vn 0.7807 0.5731 -0.2493
vn 0.8616 0.5075 0.0130
vn 0.7467 0.6185 0.2448
vn 0.6351 0.5033 0.5859
vn 0.2493 0.5731 0.7807
vn -0.0130 0.5075 0.8616
vn -0.2448 0.6185 0.7467
vt 0.251548 0.684721
vt 0.267075 0.653272
vt 0.303567 0.677227
vt 0.313109 0.736970
vt 0.308176 0.680391
vt 0.338605 0.713415
vt 0.341618 0.716540
vt 0.362528 0.754858
vt 0.342810 0.812055
vt 0.365104 0.759819
vt 0.376395 0.803282
vt 0.377581 0.807458
vt 0.377982 0.851108
vt 0.361287 0.898006
vt 0.329346 0.885497
vt 0.377524 0.856705
vt 0.359809 0.902032
vt 0.334758 0.937153
vt 0.297684 0.970370
vt 0.275397 0.944293
vt 0.331458 0.941583
vt 0.265767 0.795838
vt 0.296392 0.841485
vt 0.251865 0.833312
vt 0.305713 0.797190
vt 0.289373 0.886214
vt 0.251548 0.873284
vt 0.184207 0.791373
vt 0.212717 0.870533
vt 0.133557 0.899043
vt 0.279118 0.714628
vt 0.323346 0.776337
vt 0.337152 0.848956
vt 0.298759 0.911580
vt 0.294483 0.973226
vt 0.101809 0.871546
vt 0.102140 0.867383
vt 0.101809 0.824178
vt 0.105047 0.819884
vt 0.132544 0.788135
vt 0.136707 0.788466
vt 0.179912 0.788135
vt 0.215955 0.818870
vt 0.215624 0.823033
vt 0.215955 0.866239
vt 0.185220 0.902282
vt 0.181057 0.901950
vt 0.137852 0.902282
s 1
usemtl マテリアル
f 159/224/156 169/225/166 168/226/165
f 160/227/157 170/228/167 171/229/168
f 160/227/157 172/230/169 173/231/170
f 162/232/159 174/233/171 175/234/172
f 162/232/159 176/235/173 177/236/174
f 179/237/176 161/238/158 178/239/175
f 161/238/158 180/240/177 181/241/178
f 183/242/180 159/243/156 182/244/179
f 160/245/157 167/246/164 163/247/160
f 162/232/159 167/246/164 164/248/161
f 167/246/164 161/238/158 166/249/163
f 167/246/164 159/250/156 163/247/160
f 170/228/167 163/254/160 168/226/165
f 163/254/160 159/224/156 168/226/165
f 171/229/168 172/230/169 160/227/157
f 160/227/157 163/254/160 170/228/167
f 174/233/171 164/255/161 173/231/170
f 164/255/161 160/227/157 173/231/170
f 175/234/172 176/235/173 162/232/159
f 162/232/159 164/255/161 174/233/171
f 177/236/174 178/239/175 165/256/162
f 165/256/162 162/232/159 177/236/174
f 180/240/177 161/238/158 179/237/176
f 161/238/158 165/256/162 178/239/175
f 181/241/178 182/244/179 166/257/163
f 166/257/163 161/238/158 181/241/178
f 169/258/166 159/243/156 183/242/180
f 159/243/156 166/257/163 182/244/179
f 160/245/157 164/248/161 167/246/164
f 162/232/159 165/256/162 167/246/164
f 167/246/164 165/256/162 161/238/158
f 167/246/164 166/249/163 159/250/156
usemtl 
f 181/251/178 177/252/174 173/253/170
f 173/253/170 172/259/169 171/260/168
f 171/260/168 170/261/167 168/262/165
f 168/262/165 169/263/166 183/264/180
f 183/264/180 182/265/179 181/251/178
f 181/251/178 180/266/177 179/267/176
f 179/267/176 178/268/175 177/252/174
f 177/252/174 176/269/173 175/270/172
f 175/270/172 174/271/171 173/253/170
f 173/253/170 171/260/168 168/262/165
f 168/262/165 183/264/180 181/251/178
f 181/251/178 179/267/176 177/252/174
f 177/252/174 175/270/172 173/253/170
f 173/253/170 168/262/165 181/251/178
