# Blender 4.1.1
# www.blender.org
mtllib poison.mtl
o Cube
v -0.707107 0.500000 -0.000001
v -0.707107 -0.500000 -0.000001
v 0.000001 0.500000 -0.707107
v 0.000001 -0.500000 -0.707107
v -0.000001 0.500000 0.707107
v -0.000001 -0.500000 0.707107
v 0.707107 -0.500000 0.000001
v 0.431029 -0.609568 0.431030
v -0.431030 -0.609568 0.431029
v -0.862059 -0.000000 -0.000001
v 0.000001 -0.000000 -0.862059
v -0.000001 0.000000 0.862059
v 0.431030 0.609568 -0.431029
v -0.431029 0.609568 -0.431030
v 0.431030 -0.609568 -0.431029
v -0.431030 0.609568 0.431029
v -0.431029 -0.609568 -0.431030
v 0.000000 0.442144 -0.000000
v 0.000000 -0.733733 0.000000
v -0.593620 -0.000000 -0.593621
v -0.593621 0.000000 0.593620
v 0.445949 0.603647 -0.407737
v 0.370199 0.472434 -0.000000
v 0.588309 -0.004474 -0.594635
v 0.590628 -0.011219 -0.590627
v 0.582947 0.008990 -0.595661
v 0.586713 -0.000000 -0.596744
v 0.623758 -0.132779 -0.435979
v 0.548390 -0.169571 0.548391
v 0.642247 -0.214238 0.339269
v 0.386605 0.174367 0.633197
v 0.455013 0.000000 0.656300
v 0.529254 -0.158642 0.563133
v 0.493764 -0.084108 0.612711
v 0.348454 0.588577 0.483920
v 0.359825 0.581910 0.359826
v 0.410513 0.414389 -0.522016
v 0.441304 0.571049 -0.441303
v 0.776649 -0.275602 0.000001
v 0.630772 -0.158642 -0.402745
v 0.294225 0.414389 0.584385
vn -0.7051 0.7091 -0.0000
vn -0.0000 1.0000 -0.0000
vn -0.3417 0.8755 -0.3417
vn -0.0000 0.7091 0.7051
vn -0.3417 0.8755 0.3417
vn 0.3417 0.8755 -0.3417
vn 0.8245 0.5555 0.1079
vn 0.7677 0.6279 0.1282
vn -0.0000 0.7091 -0.7051
vn 0.8627 0.0402 -0.5042
vn 0.4619 -0.7571 -0.4620
vn -0.0000 -0.6113 -0.7914
vn -0.0000 -0.0000 -1.0000
vn 0.7906 0.3935 -0.4691
vn 0.8040 0.1662 -0.5709
vn 0.9807 0.0196 -0.1947
vn 0.7914 -0.6113 -0.0000
vn 0.8875 0.3301 0.3215
vn 0.4620 -0.7571 0.4620
vn -0.0000 -0.0000 1.0000
vn 0.7459 0.3719 0.5527
vn 0.7877 0.2734 0.5520
vn 0.7773 0.0612 0.6262
vn -0.0000 -0.6113 0.7914
vn -0.0000 -1.0000 -0.0000
vn -0.7914 -0.6113 -0.0000
vn -0.4620 -0.7571 0.4620
vn -0.7071 -0.0000 -0.7071
vn -0.4620 -0.7571 -0.4620
vn -1.0000 -0.0000 -0.0000
vn -0.7071 -0.0000 0.7071
vn 0.6865 0.7262 -0.0366
vn 0.8913 0.0891 -0.4445
vn 0.7999 0.3046 -0.5171
vn 0.9696 0.2438 0.0202
vn 0.0455 0.8398 0.5411
vn 0.7447 0.2943 0.5990
vn 0.6440 0.7104 0.2839
vn 0.8076 0.0348 0.5888
vn 0.8926 -0.0178 -0.4505
vn 0.7467 0.1481 0.6485
vt 0.255356 0.292875
vt 0.229956 0.123499
vt 0.330321 0.208786
vt 0.059595 0.141152
vt 0.136555 0.244007
vt 0.333811 0.011879
vt 0.224852 0.034442
vt 0.327841 0.008699
vt 0.401210 0.121234
vt 0.585167 0.084700
vt 0.683614 0.204097
vt 0.577417 0.270685
vt 0.492794 0.191805
vt 0.581816 0.083511
vt 0.583968 0.084406
vt 0.634443 0.091189
vt 0.770528 0.113778
vt 0.108422 0.749877
vt 0.220549 0.749203
vt 0.145545 0.853286
vt 0.176212 0.556991
vt 0.079038 0.601846
vt 0.092103 0.476110
vt 0.119524 0.693730
vt 0.120499 0.687305
vt 0.607946 0.612726
vt 0.599377 0.441108
vt 0.707240 0.534940
vt 0.427556 0.442957
vt 0.501398 0.545217
vt 0.688917 0.329657
vt 0.770529 0.425832
vt 0.416372 0.281908
vt 0.503606 0.357795
vt 0.340342 0.369144
vt 0.268122 0.630057
vt 0.259874 0.461398
vt 0.365448 0.551436
vt 0.133169 0.041126
vt 0.449550 0.005544
vt 0.458117 0.010428
vt 0.481494 0.046340
vt 0.453598 0.000111
vt 0.746710 0.062815
vt 0.644590 0.092427
vt 0.089860 0.838649
vt 0.048104 0.544931
vt 0.000111 0.526146
vt 0.112136 0.665236
vt 0.156483 0.369204
vt 0.587047 0.085250
vt 0.103999 0.641523
vt 0.103171 0.047059
vt 0.797935 0.207499
vt 0.818489 0.042776
vt 0.822240 0.259384
vt 0.902671 0.276863
vt 0.955961 0.019068
vt 0.971325 0.135566
vt 0.960258 0.267190
vt 0.817576 0.255748
vt 0.770751 0.129560
vt 0.824586 0.035460
vt 0.853246 0.001423
vt 0.858091 0.000402
vt 0.854854 0.000560
vt 0.855923 0.000111
vt 0.860789 0.281119
vt 0.840374 0.270898
vt 0.992269 0.035630
vt 0.999889 0.042837
vt 0.997875 0.215185
vt 0.999889 0.242949
s 1
usemtl マテリアル
f 1/1/1 18/2/2 14/3/3
f 5/4/4 18/2/2 16/5/5
f 13/6/6 23/7/7 22/8/8
f 18/2/2 3/9/9 14/3/3
f 24/10/10 15/11/11 4/12/12
f 11/13/13 26/14/14 27/15/15
f 15/11/11 28/16/16 7/17/17
f 30/18/18 8/19/19 7/20/17
f 12/21/20 31/22/21 5/23/4
f 8/19/19 29/24/22 33/25/23
f 6/26/24 19/27/25 8/28/19
f 2/29/26 19/27/25 9/30/27
f 19/27/25 4/12/12 15/31/11
f 19/27/25 7/32/17 8/28/19
f 2/29/26 20/33/28 17/34/29
f 1/1/1 20/33/28 10/35/30
f 20/33/28 3/9/9 11/13/13
f 20/33/28 4/12/12 17/34/29
f 6/36/24 21/37/31 9/38/27
f 5/23/4 21/37/31 12/21/20
f 21/37/31 1/1/1 10/35/30
f 21/37/31 2/29/26 9/38/27
f 1/1/1 16/5/5 18/2/2
f 5/4/4 36/39/32 18/2/2
f 36/39/32 23/7/7 18/2/2
f 18/2/2 13/6/6 3/9/9
f 11/13/13 24/10/10 4/12/12
f 13/40/6 38/41/33 37/42/34
f 22/43/8 38/41/33 13/40/6
f 39/44/35 28/16/16 40/45/36
f 7/20/17 39/46/35 30/18/18
f 5/23/4 41/47/37 35/48/38
f 34/49/39 12/21/20 6/36/24
f 6/26/24 9/30/27 19/27/25
f 2/29/26 17/34/29 19/27/25
f 19/27/25 17/34/29 4/12/12
f 19/27/25 15/31/11 7/32/17
f 2/29/26 10/35/30 20/33/28
f 1/1/1 14/3/3 20/33/28
f 20/33/28 14/3/3 3/9/9
f 20/33/28 11/13/13 4/12/12
f 6/36/24 12/21/20 21/37/31
f 5/23/4 16/50/5 21/37/31
f 21/37/31 16/50/5 1/1/1
f 21/37/31 10/35/30 2/29/26
f 13/6/6 18/2/2 23/7/7
f 24/10/10 25/51/40 15/11/11
f 11/13/13 3/9/9 26/14/14
f 15/11/11 25/51/40 28/16/16
f 30/18/18 29/24/22 8/19/19
f 12/21/20 32/52/41 31/22/21
f 33/25/23 34/49/39 6/36/24
f 6/36/24 8/19/19 33/25/23
f 5/4/4 35/53/38 36/39/32
f 11/13/13 27/15/15 24/10/10
f 37/42/34 26/14/14 3/9/9
f 3/9/9 13/40/6 37/42/34
f 39/44/35 7/17/17 28/16/16
f 5/23/4 31/22/21 41/47/37
f 34/49/39 32/52/41 12/21/20
usemtl マテリアル.001
f 30/54/18 40/55/36 33/56/23
f 31/57/21 40/55/36 37/58/34
f 23/59/7 41/60/37 37/58/34
f 33/56/23 29/61/22 30/54/18
f 30/54/18 39/62/35 40/55/36
f 28/63/16 25/64/40 26/65/14
f 25/64/40 24/66/10 26/65/14
f 24/66/10 27/67/15 26/65/14
f 26/65/14 37/58/34 28/63/16
f 37/58/34 41/60/37 31/57/21
f 31/57/21 32/68/41 34/69/39
f 34/69/39 33/56/23 31/57/21
f 33/56/23 40/55/36 31/57/21
f 40/55/36 28/63/16 37/58/34
f 37/58/34 38/70/33 23/59/7
f 38/70/33 22/71/8 23/59/7
f 23/59/7 36/72/32 41/60/37
f 36/72/32 35/73/38 41/60/37
o 立方体
v -0.070000 0.410336 0.070000
v -0.070000 0.870423 0.094794
v -0.070000 0.410336 -0.070000
v -0.070000 0.948772 -0.056330
v 0.070000 0.410336 0.070000
v 0.070000 0.936244 0.048720
v 0.070000 0.410336 -0.070000
v 0.070000 1.010336 -0.030746
vn -0.5204 -0.1377 0.8427
vn -0.7432 0.0234 -0.6686
vn -0.7311 0.0212 0.6820
vn -0.7013 0.2079 -0.6819
vn 0.7428 0.0283 -0.6689
vn 0.6093 0.0677 0.7901
vn 0.7306 0.0329 0.6820
vn 0.6693 0.5452 -0.5048
vt 0.780998 0.399739
vt 0.784656 0.304778
vt 0.781994 0.313338
vt 0.770751 0.413978
vt 0.782795 0.281342
vt 0.784656 0.417918
vt 0.778228 0.304605
vt 0.771792 0.443654
s 1
usemtl マテリアル
f 43/74/42 44/75/43 42/76/44
f 45/77/45 48/78/46 44/75/43
f 48/78/46 47/79/47 46/80/48
f 47/79/47 42/76/44 46/80/48
f 45/77/45 47/79/47 49/81/49
f 43/74/42 45/77/45 44/75/43
f 45/77/45 49/81/49 48/78/46
f 48/78/46 49/81/49 47/79/47
f 47/79/47 43/74/42 42/76/44
f 45/77/45 43/74/42 47/79/47
